Coordinates
datacolumns 6
datarows 171
range 0 1.7
inDegrees=yes
Units are S.I. units (second, meters, Newtons, ...)
If the header above contains a line with 'inDegrees', this indicates whether rotational values are in degrees (yes) or radians (no).
endheader
time	foot_tx	hip_flexion_r	knee_angle_r	ankle_angle_r	lumbar
0	0.26267258	61.51026796	-65.74840383	1.75020286	-12.11346366
0.01	0.26268711	61.57761871	-65.74736386	1.74464705	-12.27645338
0.02	0.26270307	61.64806173	-65.74391066	1.73766044	-12.45690502
0.03	0.26271757	61.72465371	-65.73744838	1.72920697	-12.65066332
0.04	0.26273055	61.81102513	-65.72756241	1.71904341	-12.85294048
0.05	0.26274115	61.90791161	-65.71269658	1.70646231	-13.06354829
0.06	0.26274208	62.01586732	-65.69495773	1.6933146	-13.28197984
0.07	0.26275395	62.18452216	-65.67155747	1.67325506	-13.45041795
0.08	0.26273882	62.27381508	-65.64814987	1.66203427	-13.73258075
0.09	0.26274187	62.46606737	-65.62113028	1.64205099	-13.91478539
0.1	0.26272456	62.60010802	-65.59436254	1.62969674	-14.18540711
0.11	0.26271756	62.8154735	-65.56745587	1.61330014	-14.3802715
0.12	0.26270489	63.03817787	-65.54194557	1.60039512	-14.58575998
0.13	0.26268753	63.27087117	-65.51956157	1.59216254	-14.79807067
0.14	0.26266682	63.51606135	-65.50086989	1.58911299	-15.01384158
0.15	0.26264612	63.77567228	-65.48542561	1.59103166	-15.23050418
0.16	0.26262504	64.09598068	-65.47520905	1.59629868	-15.39337187
0.17	0.26260612	64.42820735	-65.468887	1.60767846	-15.55934835
0.18	0.26258517	64.78606027	-65.46717792	1.62520413	-15.71295035
0.19	0.26256222	65.16933807	-65.46984574	1.64905759	-15.85511901
0.2	0.26254068	65.58132986	-65.47712738	1.6792184	-15.98166538
0.21	0.26251196	66.01922036	-65.48915432	1.71662257	-16.09769508
0.22	0.26248409	66.49080011	-65.50552206	1.75999114	-16.19337935
0.23	0.26244378	66.99203175	-65.52730029	1.81129445	-16.27628139
0.24	0.2624072	67.52581977	-65.55191572	1.86752972	-16.34272981
0.25	0.26236394	68.09401334	-65.58096366	1.93027826	-16.39273808
0.26	0.2623242	68.69167639	-65.61082909	1.99688868	-16.43423968
0.27	0.26228088	69.32193129	-65.64408019	2.06918705	-16.46476103
0.28	0.26223667	69.980557	-65.6804426	2.14692939	-16.49110121
0.29	0.26219085	70.66786258	-65.71927075	2.22973883	-16.51562867
0.3	0.26214569	71.38857779	-65.76097135	2.31758643	-16.53437907
0.31	0.2621001	72.14470506	-65.80634033	2.41073493	-16.54635919
0.32	0.26204965	72.93722311	-65.85488654	2.50942462	-16.55223838
0.33	0.26199574	73.77102241	-65.90549807	2.61286645	-16.54686858
0.34	0.26193285	74.64211158	-65.96083488	2.72391055	-16.53463501
0.35	0.26188109	75.54577153	-66.01499336	2.83836403	-16.52185856
0.36	0.26182193	76.48851909	-66.07264306	2.96072474	-16.49819955
0.37	0.26175853	77.47326512	-66.13209391	3.09062302	-16.45550252
0.38	0.26169917	78.48820423	-66.19438755	3.22977169	-16.39942026
0.39	0.26163351	79.54297277	-66.26052051	3.38039267	-16.30986292
0.4	0.26156107	80.62876714	-66.33265116	3.5454266	-16.18885339
0.41	0.26148193	81.73893202	-66.41148411	3.72678977	-16.03846173
0.42	0.26139616	82.86608306	-66.49780658	3.92651518	-15.86380676
0.43	0.26130595	84.00088072	-66.59166253	4.14583798	-15.6741694
0.44	0.26121772	85.13460135	-66.6947047	4.3862809	-15.47872657
0.45	0.26113565	86.27801117	-66.80587263	4.64637556	-15.26271034
0.46	0.26106647	87.43556124	-66.92570377	4.92555226	-15.01713774
0.47	0.2610157	88.61648394	-67.04894119	5.21986471	-14.72549389
0.48	0.26098908	89.81023749	-67.17153812	5.52737334	-14.39442983
0.49	0.26098966	91.00585578	-67.28824189	5.84556744	-14.03140806
0.5	0.2610207	92.19251582	-67.39399175	6.17113437	-13.6443043
0.51	0.26108345	93.33872335	-67.48864235	6.50385424	-13.26775501
0.52	0.2611775	94.43308771	-67.56901793	6.84042229	-12.91066599
0.53	0.26129602	95.45261759	-67.6376233	7.18079201	-12.59748774
0.54	0.26143611	96.38660921	-67.70011352	7.52518009	-12.33789994
0.55	0.26158768	97.2273778	-67.76518783	7.87570798	-12.13783605
0.56	0.26174663	97.96847979	-67.84051723	8.23439617	-11.9998372
0.57	0.26190998	98.60529364	-67.93010045	8.60232512	-11.9212844
0.58	0.26208282	99.131614	-68.03559706	8.9799093	-11.89992116
0.59	0.26227037	99.54486461	-68.1552296	9.36638503	-11.92892674
0.6	0.26247855	99.8477961	-68.28437854	9.75914014	-11.9984371
0.61	0.26269888	100.0423219	-68.41863998	10.15781526	-12.10009986
0.62	0.26293974	100.1782602	-68.54226482	10.55196764	-12.16960923
0.63	0.26318519	100.18516	-68.65696003	10.94849397	-12.29658987
0.64	0.26344178	100.1469838	-68.74769413	11.33553687	-12.37688518
0.65	0.26370145	100.0509145	-68.81166997	11.71291047	-12.43080907
0.66	0.26395835	99.90339235	-68.8462164	12.07954643	-12.45356265
0.67	0.26421123	99.69644249	-68.84463281	12.43273622	-12.45870079
0.68	0.26445643	99.43051661	-68.80273376	12.77138172	-12.44859477
0.69	0.26469125	99.10110355	-68.71434331	13.09317116	-12.43334568
0.7	0.26492037	98.71610826	-68.5768748	13.3958647	-12.40754496
0.71	0.26513963	98.28265169	-68.39093543	13.67952916	-12.36861192
0.72	0.26534946	97.80031211	-68.15962835	13.94490019	-12.32199131
0.73	0.26556345	97.27762207	-67.88120623	14.18836433	-12.26177574
0.74	0.26578056	96.71094645	-67.55991704	14.41179377	-12.19491893
0.75	0.26600559	96.10821691	-67.19301427	14.6123748	-12.11401969
0.76	0.26623507	95.47546129	-66.78098972	14.78985044	-12.01377603
0.77	0.26646461	94.81249434	-66.32940455	14.9469436	-11.89671017
0.78	0.26668733	94.11875203	-65.84682823	15.08808215	-11.767522
0.79	0.2669036	93.38744486	-65.34160298	15.21752183	-11.6378362
0.8	0.2671153	92.61709342	-64.81941536	15.33779733	-11.51354742
0.81	0.2673286	91.81057372	-64.28216636	15.44893129	-11.39517659
0.82	0.26754919	90.96738456	-63.73172013	15.55141733	-11.28636023
0.83	0.26777944	90.08562793	-63.16989279	15.64617499	-11.19060378
0.84	0.26801731	89.16836549	-62.59757954	15.73366739	-11.10259602
0.85	0.26825151	88.22834355	-62.01406275	15.81369895	-11.00285941
0.86	0.26847114	87.26015798	-61.42223251	15.88889111	-10.89334828
0.87	0.26866382	86.26666385	-60.82262161	15.96025036	-10.76810658
0.88	0.26882477	85.2476349	-60.21368467	16.02693315	-10.62792514
0.89	0.2689565	84.19842633	-59.59550469	16.08872191	-10.48159347
0.9	0.2690635	83.10931302	-58.9659566	16.14435824	-10.34680555
0.91	0.26916538	81.97929801	-58.32144131	16.19009481	-10.23223917
0.92	0.26928032	80.80519547	-57.65796102	16.22237327	-10.15085395
0.93	0.26942444	79.59056929	-56.97080261	16.23710743	-10.1071403
0.94	0.26960918	78.34767627	-56.25460804	16.22988336	-10.09141993
0.95	0.26983404	77.09141533	-55.50649176	16.19863038	-10.08550882
0.96	0.27008555	75.83240576	-54.72850155	16.14538326	-10.07310059
0.97	0.27034371	74.57066889	-53.92678223	16.07573826	-10.04984714
0.98	0.27059935	73.31683047	-53.10336379	15.99140482	-9.99840532
0.99	0.27084337	72.0622472	-52.26108676	15.8960563	-9.92505369
1	0.27107583	70.80274959	-51.3987874	15.78993256	-9.83182676
1.01	0.27129928	69.53210104	-50.51520788	15.67285401	-9.72462397
1.02	0.27151744	68.24569434	-49.61040249	15.54465646	-9.60965733
1.03	0.27173399	66.94174534	-48.6866153	15.40566076	-9.49396818
1.04	0.2719518	65.62119536	-47.74780682	15.25672639	-9.3850549
1.05	0.27217278	64.2862437	-46.79812501	15.09902142	-9.28812438
1.06	0.27239767	62.9386748	-45.84080422	14.93379776	-9.20502639
1.07	0.27262669	61.58063509	-44.87740146	14.76176541	-9.13371489
1.08	0.27285988	60.21483955	-43.90778587	14.5829052	-9.06964173
1.09	0.27309721	58.84363764	-42.93064151	14.39680008	-9.00798127
1.1	0.27333874	57.46842422	-41.94402087	14.20297767	-8.94491345
1.11	0.27358441	56.08922208	-40.94586778	14.00114334	-8.87814453
1.12	0.27383141	54.70289885	-39.93414578	13.79121453	-8.80899223
1.13	0.27408708	53.31533055	-38.91097422	13.57387549	-8.72825818
1.14	0.27434247	51.91715658	-37.8765069	13.35015519	-8.64673896
1.15	0.27460318	50.5148256	-36.83295927	13.12000825	-8.55785309
1.16	0.27486804	49.10239009	-35.78414429	12.88573924	-8.47010247
1.17	0.27513996	47.68025208	-34.73198494	12.64791301	-8.38551062
1.18	0.27542093	46.2480644	-33.67782599	12.40710511	-8.30736395
1.19	0.27571203	44.80853565	-32.62266361	12.163617	-8.23569521
1.2	0.2760129	43.36776908	-31.56752316	11.91756307	-8.16664316
1.21	0.27632176	41.93281851	-30.51320404	11.66888433	-8.0949181
1.22	0.27663657	40.51119232	-29.46010828	11.41728106	-8.01380255
1.23	0.27695526	39.1098931	-28.40822753	11.16234625	-7.91502011
1.24	0.27727581	37.73295924	-27.35728626	10.90384957	-7.79083406
1.25	0.27759849	36.39160612	-26.30636234	10.64051075	-7.62437677
1.26	0.27792027	35.08080761	-25.25703798	10.37371587	-7.41950043
1.27	0.27823979	33.8072317	-24.21245914	10.1045949	-7.17101323
1.28	0.27855645	32.57761679	-23.17468288	9.83326504	-6.87640376
1.29	0.2788661	31.3858166	-22.1493022	9.56298843	-6.54936858
1.3	0.27916771	30.23630808	-21.13990572	9.29485577	-6.19166842
1.31	0.27945921	29.12576044	-20.15079255	9.03099808	-5.8144902
1.32	0.27974072	28.06226471	-19.18375881	8.77142959	-5.41209105
1.33	0.2800119	27.04274365	-18.2416105	8.51747873	-4.99425414
1.34	0.28027044	26.06230298	-17.32672949	8.27070713	-4.56930725
1.35	0.28051781	25.12073457	-16.44131982	8.03221618	-4.14003962
1.36	0.28075346	24.22363469	-15.58430795	7.80106669	-3.70076535
1.37	0.28097636	23.36552106	-14.75739099	7.57902196	-3.25763299
1.38	0.28118492	22.54486891	-13.96126198	7.36722193	-2.81098932
1.39	0.2813773	21.76014546	-13.19741687	7.16743672	-2.3605096
1.4	0.28155163	21.0105843	-12.46720617	6.98122698	-1.90484866
1.41	0.28170549	20.29620653	-11.77011038	6.80863515	-1.44239841
1.42	0.28183493	19.61761603	-11.10374107	6.64812666	-0.97214116
1.43	0.28193482	18.97499994	-10.46553507	6.49782636	-0.4948342
1.44	0.28199854	18.3673809	-9.85417301	6.35685774	-0.01264972
1.45	0.28202355	17.83197792	-9.26966926	6.22245815	0.51451024
1.46	0.28201181	17.24813878	-8.69392106	6.09171796	0.95582821
1.47	0.28196306	16.75581849	-8.14855719	5.96788589	1.46152921
1.48	0.28188443	16.22690556	-7.61912576	5.85016103	1.89041414
1.49	0.28179534	15.76711916	-7.12244408	5.74028696	2.35625104
1.5	0.28170642	15.27673911	-6.65006104	5.63932378	2.74914587
1.51	0.28162283	14.85001091	-6.21273012	5.54817541	3.17659489
1.52	0.28155044	14.43605825	-5.80402141	5.46572977	3.58101847
1.53	0.28147769	14.03174015	-5.41451257	5.38871879	3.9690996
1.54	0.28140678	13.6431495	-5.04348899	5.31567368	4.34659374
1.55	0.28133185	13.26189249	-4.6847134	5.24449535	4.7091242
1.56	0.28125094	12.89554124	-4.33924179	5.17526527	5.06496419
1.57	0.28115777	12.53463968	-4.00361795	5.10760999	5.40765322
1.58	0.28104876	12.18661657	-3.67838233	5.04185929	5.74659919
1.59	0.28091565	11.84623546	-3.36360439	4.97892156	6.07679802
1.6	0.28075344	11.51380527	-3.06034508	4.91985161	6.39889816
1.61	0.28056814	11.19111662	-2.77131224	4.86553312	6.71299484
1.62	0.28036325	10.87857045	-2.49602228	4.8155491	7.01898892
1.63	0.28014688	10.57708863	-2.23721794	4.77084453	7.31547383
1.64	0.2799225	10.28687103	-1.9940604	4.7307857	7.60286021
1.65	0.27969675	10.00886376	-1.76880787	4.6959005	7.87920703
1.66	0.27947373	9.7443382	-1.56254554	4.66629172	8.14452033
1.67	0.27925654	9.49401835	-1.37493147	4.64137022	8.39888369
1.68	0.27904734	9.25807386	-1.20606382	4.62112066	8.64258451
1.69	0.27884716	9.03625296	-1.05463477	4.60480732	8.87588282
1.7	0.27865617	8.82813653	-0.91950332	4.5917333	9.09853434
